<svg xmlns="http://www.w3.org/2000/svg" viewBox="0 0 1200 780" font-family="'Courier New', monospace">

  <rect width="1200" height="780" fill="#0d0d0d"/>

  <!-- ═══════════════════════════════════ -->
  <!-- TOP BAR                            -->
  <!-- ═══════════════════════════════════ -->
  <rect x="0" y="0" width="1200" height="40" fill="#111"/>
  <text x="16" y="25" font-size="14" fill="#40916c">⬡</text>
  <text x="34" y="25" font-size="13" font-weight="bold" fill="#e0e0e0">Texgraph</text>
  <text x="180" y="25" font-size="11" fill="#666">lift-wind-love-heat</text>

  <!-- View toggle: Graph active -->
  <rect x="700" y="7" width="270" height="27" rx="4" fill="#1a1a1a" stroke="#2a2a2a" stroke-width="1"/>
  <text x="745" y="24" font-size="12" text-anchor="middle" fill="#555">✏ Cards</text>
  <rect x="789" y="8" width="88" height="25" rx="3" fill="#1a3a1a" stroke="#2d6a4f" stroke-width="1"/>
  <text x="833" y="24" font-size="12" text-anchor="middle" fill="#4ade80">⊞ Graph</text>
  <text x="935" y="24" font-size="12" text-anchor="middle" fill="#555">▶ Build</text>

  <rect x="988" y="8" width="80" height="25" rx="4" fill="#1a1a2a" stroke="#3a3a6e" stroke-width="1"/>
  <text x="1028" y="24" font-size="12" text-anchor="middle" fill="#8888cc">⬡ Agent</text>
  <rect x="1076" y="8" width="70" height="25" rx="4" fill="#1a1a1a" stroke="#2a2a2a" stroke-width="1"/>
  <text x="1111" y="24" font-size="12" text-anchor="middle" fill="#555">⚙</text>

  <!-- ═══════════════════════════════════ -->
  <!-- LEFT SECTION NAV (x=0, w=196)      -->
  <!-- ═══════════════════════════════════ -->
  <rect x="0" y="40" width="196" height="720" fill="#131313"/>
  <rect x="0" y="40" width="196" height="30" fill="#191919"/>
  <text x="12" y="60" font-size="11" fill="#555" letter-spacing="1">SECTIONS</text>
  <text x="174" y="60" font-size="11" fill="#333" text-anchor="end">⊞</text>

  <!-- Section list -->
  <text x="12" y="88" font-size="11" fill="#444">01  Preface</text>
  <text x="12" y="106" font-size="11" fill="#444">02  Overture</text>
  <text x="12" y="124" font-size="11" fill="#444">03  I. Vibrations...</text>
  <text x="12" y="142" font-size="11" fill="#444">04  II. Chansons...</text>
  <text x="12" y="160" font-size="11" fill="#444">05  Lift Wind / Love Heat</text>
  <text x="12" y="178" font-size="11" fill="#444">06  IV. Gods Touch...</text>
  <text x="12" y="196" font-size="11" fill="#444">07  V. Other Voices</text>
  <text x="12" y="214" font-size="11" fill="#444">08  The Kid (screenplay)</text>
  <text x="12" y="232" font-size="11" fill="#444">09  VI. Field Hymns</text>
  <text x="12" y="250" font-size="11" fill="#444">10  VII. It Speaks...</text>

  <!-- Active §VIII -->
  <rect x="0" y="258" width="196" height="22" fill="#1a2a1a"/>
  <text x="12" y="273" font-size="11" fill="#4ade80" font-weight="bold">11  §VIII  Laws, Money</text>
  <rect x="190" y="262" width="4" height="14" rx="2" fill="#40916c"/>

  <text x="12" y="296" font-size="11" fill="#444">12  Coda</text>
  <text x="12" y="314" font-size="11" fill="#444">13  Epilogue</text>
  <text x="12" y="332" font-size="11" fill="#444">14  Backmatter</text>

  <!-- Nav divider -->
  <rect x="196" y="40" width="1" height="720" fill="#222"/>

  <!-- ═══════════════════════════════════ -->
  <!-- CANVAS (x=197, y=40)              -->
  <!-- ═══════════════════════════════════ -->
  <rect x="197" y="40" width="1003" height="720" fill="#0f0f0f"/>

  <!-- Canvas toolbar strip -->
  <rect x="197" y="40" width="1003" height="36" fill="#151515"/>
  <rect x="197" y="76" width="1003" height="1" fill="#1e1e1e"/>
  <!-- Zoom controls -->
  <rect x="209" y="48" width="22" height="22" rx="3" fill="#1e1e1e" stroke="#2a2a2a"/>
  <text x="220" y="63" font-size="14" text-anchor="middle" fill="#666">−</text>
  <text x="244" y="63" font-size="11" fill="#555">75%</text>
  <rect x="262" y="48" width="22" height="22" rx="3" fill="#1e1e1e" stroke="#2a2a2a"/>
  <text x="273" y="63" font-size="14" text-anchor="middle" fill="#666">+</text>
  <rect x="292" y="48" width="48" height="22" rx="3" fill="#1e1e1e" stroke="#2a2a2a"/>
  <text x="316" y="63" font-size="10" text-anchor="middle" fill="#555">Fit</text>
  <!-- Show variants toggle -->
  <rect x="352" y="50" width="36" height="18" rx="9" fill="#2d6a4f" stroke="#40916c"/>
  <circle cx="371" cy="59" r="7" fill="#d8f3dc"/>
  <text x="396" y="63" font-size="11" fill="#888">Show variants</text>
  <!-- Config level selector -->
  <rect x="498" y="48" width="130" height="22" rx="3" fill="#1e1e1e" stroke="#2a2a2a"/>
  <text x="563" y="63" font-size="11" text-anchor="middle" fill="#888">Config: Global  ▾</text>

  <!-- ─── Collapsed section: §VII ─── -->
  <rect x="209" y="88" width="738" height="38" rx="4" fill="#161616" stroke="#222" stroke-width="1"/>
  <text x="221" y="111" font-size="11" fill="#444">▸  §VII  ·  Other Voices, Other Roads  ·  6 poems</text>
  <text x="924" y="111" font-size="11" fill="#333" text-anchor="end">expand</text>

  <!-- ─── EXPANDED §VIII ─── -->
  <rect x="209" y="138" width="738" height="296" rx="4" fill="#151f15" stroke="#2d6a4f" stroke-width="1.5"/>

  <!-- Section header strip -->
  <rect x="209" y="138" width="738" height="36" rx="3" fill="#1a2a1a"/>
  <rect x="209" y="154" width="738" height="20" fill="#1a2a1a"/>
  <text x="221" y="160" font-size="12" font-weight="bold" fill="#d4d4d4">▾  §VIII  ·  Laws, Money, Women, Land</text>
  <text x="221" y="174" font-size="11" fill="#555">order 11  ·  5 poems  ·  3 with variants  ·  1 warning</text>
  <!-- Section render button -->
  <rect x="860" y="146" width="78" height="22" rx="3" fill="#2d6a4f" stroke="#40916c"/>
  <text x="899" y="161" font-size="11" text-anchor="middle" fill="#d8f3dc">▷ Render §</text>

  <!-- Card stacks row inside §VIII -->
  <!-- Poems start at y=184 (138+46), stack area h=228 -->

  <!-- ── Card stack 1: Mayday (SELECTED, fanned) ── -->
  <!-- 3 stacked cards, slightly offset -->
  <!-- Shadow cards behind -->
  <rect x="233" y="196" width="118" height="148" rx="4" fill="#0f1f0f" stroke="#1a3a1a"/>
  <rect x="229" y="192" width="118" height="148" rx="4" fill="#131f13" stroke="#1e3a1e"/>
  <!-- Front (canonical) card -->
  <rect x="225" y="188" width="118" height="148" rx="4" fill="#1a2e1a" stroke="#2d6a4f" stroke-width="2"/>
  <!-- Canon badge -->
  <rect x="225" y="188" width="118" height="22" rx="3" fill="#1e3a1e"/>
  <text x="263" y="203" font-size="10" text-anchor="middle" fill="#4ade80">★ CANON  v3</text>
  <text x="327" y="203" font-size="10" text-anchor="end" fill="#2d6a4f">···</text>
  <!-- Card content -->
  <text x="233" y="224" font-size="11" font-weight="bold" fill="#d4d4d4">Mayday</text>
  <rect x="233" y="229" width="30" height="12" rx="2" fill="#1e3a1e"/>
  <text x="248" y="239" font-size="9" text-anchor="middle" fill="#4ade80">poem</text>
  <text x="233" y="256" font-size="10" fill="#888">The girl at the</text>
  <text x="233" y="270" font-size="10" fill="#888">crossing won't</text>
  <text x="233" y="284" font-size="10" fill="#888">let me pass—</text>
  <!-- Version dots row -->
  <text x="233" y="312" font-size="9" fill="#555">v1</text>
  <circle cx="249" cy="308" r="4" fill="#333"/>
  <text x="258" y="312" font-size="9" fill="#555">v2</text>
  <circle cx="274" cy="308" r="4" fill="#333"/>
  <text x="283" y="312" font-size="9" fill="#555">v3</text>
  <circle cx="299" cy="308" r="5" fill="#40916c"/>
  <!-- Selected indicator -->
  <rect x="225" y="326" width="118" height="10" rx="2" fill="#2d6a4f"/>

  <!-- Stack label -->
  <text x="284" y="348" font-size="10" text-anchor="middle" fill="#555">3 versions</text>

  <!-- ── Card stack 2: Instructions ── -->
  <rect x="367" y="194" width="118" height="148" rx="4" fill="#131313" stroke="#1e1e1e"/>
  <rect x="363" y="190" width="118" height="148" rx="4" fill="#161616" stroke="#222"/>
  <rect x="359" y="186" width="118" height="148" rx="4" fill="#1e1e1e" stroke="#2a2a2a"/>
  <rect x="359" y="186" width="118" height="20" rx="3" fill="#252525"/>
  <text x="418" y="200" font-size="10" text-anchor="middle" fill="#555">v1  ·  1 version</text>
  <text x="367" y="220" font-size="11" font-weight="bold" fill="#ccc">Instructions</text>
  <text x="367" y="234" font-size="10" fill="#666">for Crossing</text>
  <rect x="367" y="240" width="28" height="11" rx="2" fill="#1e1e1e"/>
  <text x="381" y="249" font-size="9" text-anchor="middle" fill="#555">poem</text>
  <text x="367" y="265" font-size="10" fill="#666">Stand at the</text>
  <text x="367" y="279" font-size="10" fill="#666">southern edge...</text>
  <text x="418" y="326" font-size="10" text-anchor="middle" fill="#444">1 version</text>

  <!-- ── Card stack 3: breeze-palm ── -->
  <rect x="495" y="194" width="118" height="148" rx="4" fill="#131313" stroke="#1e1e1e"/>
  <rect x="491" y="190" width="118" height="148" rx="4" fill="#161616" stroke="#222"/>
  <rect x="487" y="186" width="118" height="148" rx="4" fill="#1e1e1e" stroke="#2a2a2a"/>
  <rect x="487" y="186" width="118" height="20" rx="3" fill="#252525"/>
  <text x="546" y="200" font-size="10" text-anchor="middle" fill="#555">v2  ·  2 versions</text>
  <text x="495" y="220" font-size="11" font-weight="bold" fill="#ccc">Breeze / Palm</text>
  <rect x="495" y="226" width="30" height="11" rx="2" fill="#1e1e1e"/>
  <text x="510" y="235" font-size="9" text-anchor="middle" fill="#555">prose</text>
  <text x="495" y="251" font-size="10" fill="#666">He peeled the bark</text>
  <text x="495" y="265" font-size="10" fill="#666">down to the white...</text>
  <circle cx="519" cy="308" r="4" fill="#333"/>
  <circle cx="531" cy="308" r="5" fill="#40916c"/>
  <text x="546" y="326" font-size="10" text-anchor="middle" fill="#444">2 versions</text>

  <!-- ── Card stack 4: bones-in-her-mouth (WARNING) ── -->
  <rect x="623" y="192" width="118" height="148" rx="4" fill="#1e1a0a" stroke="#7c4f1a" stroke-width="1.5"/>
  <rect x="623" y="192" width="118" height="20" rx="3" fill="#2a1e0a"/>
  <text x="676" y="206" font-size="10" text-anchor="middle" fill="#f59e0b">⚠  No canonical</text>
  <text x="631" y="226" font-size="11" font-weight="bold" fill="#c8a84a">There Are Bones</text>
  <text x="631" y="240" font-size="10" fill="#888">in Her Mouth</text>
  <rect x="631" y="246" width="30" height="11" rx="2" fill="#2a1e0a"/>
  <text x="646" y="255" font-size="9" text-anchor="middle" fill="#f59e0b">poem</text>
  <text x="631" y="271" font-size="10" fill="#888">She brought the</text>
  <text x="631" y="285" font-size="10" fill="#888">rib-bone home...</text>
  <circle cx="655" cy="308" r="5" fill="#7c4f1a"/>
  <circle cx="667" cy="308" r="5" fill="#7c4f1a"/>
  <text x="676" y="326" font-size="10" text-anchor="middle" fill="#7c4f1a">2 versions — pick canon</text>

  <!-- ── Card stack 5: sonnetish ── -->
  <rect x="757" y="194" width="118" height="148" rx="4" fill="#131313" stroke="#1e1e1e"/>
  <rect x="753" y="190" width="118" height="148" rx="4" fill="#1e1e1e" stroke="#2a2a2a"/>
  <rect x="753" y="190" width="118" height="20" rx="3" fill="#252525"/>
  <text x="812" y="204" font-size="10" text-anchor="middle" fill="#555">v1  ·  1 version</text>
  <text x="761" y="224" font-size="11" font-weight="bold" fill="#ccc">Sonnet(ish)</text>
  <rect x="761" y="230" width="32" height="11" rx="2" fill="#1e1e1e"/>
  <text x="777" y="239" font-size="9" text-anchor="middle" fill="#555">cycle</text>
  <text x="761" y="255" font-size="10" fill="#666">In the last week of</text>
  <text x="761" y="269" font-size="10" fill="#666">the rented rooms...</text>
  <text x="812" y="326" font-size="10" text-anchor="middle" fill="#444">1 version  ·  5 parts</text>

  <!-- Section footer -->
  <rect x="209" y="418" width="738" height="16" fill="#141a14" rx="0"/>
  <text x="221" y="430" font-size="10" fill="#444">id: section_11  ·  dir: 11_laws-money  ·  section_is_cycle: false</text>

  <!-- ─── Collapsed section: §IX ─── -->
  <rect x="209" y="446" width="738" height="38" rx="4" fill="#161616" stroke="#222" stroke-width="1"/>
  <text x="221" y="469" font-size="11" fill="#444">▸  §IX  ·  Field Hymns and Hexes  ·  7 poems  ·  1 with variants</text>
  <text x="924" y="469" font-size="11" fill="#333" text-anchor="end">expand</text>

  <!-- ─── Collapsed section: §X ─── -->
  <rect x="209" y="496" width="738" height="38" rx="4" fill="#161616" stroke="#222" stroke-width="1"/>
  <text x="221" y="519" font-size="11" fill="#444">▸  §X  ·  It Speaks In Judgment  ·  section_is_cycle  ·  1 poem</text>
  <text x="924" y="519" font-size="11" fill="#333" text-anchor="end">expand</text>

  <!-- ════════════════════════════════ -->
  <!-- RENDER CONFIG PANEL (overlay)   -->
  <!-- x=948, y=76, w=252, h=456       -->
  <!-- ════════════════════════════════ -->
  <rect x="948" y="76" width="248" height="490" rx="6" fill="#141414" stroke="#2a2a2a" stroke-width="1"/>
  <!-- Panel header -->
  <rect x="948" y="76" width="248" height="36" rx="5" fill="#1a1a1a"/>
  <rect x="948" y="92" width="248" height="20" fill="#1a1a1a"/>
  <text x="960" y="98" font-size="11" fill="#888" letter-spacing="1">RENDER CONFIG</text>
  <text x="1184" y="98" font-size="12" fill="#333" text-anchor="end">×</text>

  <!-- Breadcrumb -->
  <text x="960" y="124" font-size="10" fill="#444">lift-wind-love-heat</text>
  <text x="960" y="138" font-size="10" fill="#444">› §VIII  ›  Mayday  ·  v3</text>

  <!-- Config level radios -->
  <text x="960" y="162" font-size="10" fill="#555" letter-spacing="1">CONFIG LEVEL</text>

  <!-- Global (active) -->
  <circle cx="966" cy="178" r="5" fill="#2d6a4f" stroke="#40916c"/>
  <circle cx="966" cy="178" r="2" fill="#d8f3dc"/>
  <text x="976" y="182" font-size="11" fill="#d4d4d4">Global macro</text>
  <!-- Section override -->
  <circle cx="966" cy="198" r="5" fill="#1e1e1e" stroke="#444"/>
  <text x="976" y="202" font-size="11" fill="#666">Section override</text>
  <!-- Poem level -->
  <circle cx="966" cy="216" r="5" fill="#1e1e1e" stroke="#444"/>
  <text x="976" y="220" font-size="11" fill="#666">Poem override</text>
  <!-- Custom -->
  <circle cx="966" cy="234" r="5" fill="#1e1e1e" stroke="#444"/>
  <text x="976" y="238" font-size="11" fill="#666">Custom (one-off)</text>

  <!-- Active config YAML preview -->
  <text x="960" y="260" font-size="10" fill="#555" letter-spacing="1">ACTIVE CONFIG</text>
  <rect x="960" y="266" width="224" height="130" rx="3" fill="#0d0d0d" stroke="#1e1e1e"/>
  <text x="972" y="284" font-size="10" fill="#555">mainfont:</text>
  <text x="1034" y="284" font-size="10" fill="#ce9178">"Garamond Premier Pro"</text>
  <text x="972" y="300" font-size="10" fill="#555">fontsize:</text>
  <text x="1024" y="300" font-size="10" fill="#ce9178">"11pt"</text>
  <text x="972" y="316" font-size="10" fill="#555">paperwidth:</text>
  <text x="1034" y="316" font-size="10" fill="#ce9178">"5.5in"</text>
  <text x="972" y="332" font-size="10" fill="#555">paperheight:</text>
  <text x="1036" y="332" font-size="10" fill="#ce9178">"8.5in"</text>
  <text x="972" y="348" font-size="10" fill="#555">verse_spacing:</text>
  <text x="1044" y="348" font-size="10" fill="#b5cea8">1.2</text>
  <text x="972" y="374" font-size="10" fill="#333" font-style="italic">← inheriting from global</text>

  <!-- Render scope -->
  <text x="960" y="416" font-size="10" fill="#555" letter-spacing="1">RENDER SCOPE</text>
  <rect x="960" y="422" width="100" height="22" rx="3" fill="#1a3a1a" stroke="#2d6a4f"/>
  <text x="1010" y="437" font-size="10" text-anchor="middle" fill="#4ade80">This poem</text>
  <rect x="1068" y="422" width="116" height="22" rx="3" fill="#1a1a1a" stroke="#2a2a2a"/>
  <text x="1126" y="437" font-size="10" text-anchor="middle" fill="#555">Full collection</text>

  <!-- Render buttons -->
  <rect x="960" y="454" width="104" height="30" rx="4" fill="#2d6a4f" stroke="#40916c"/>
  <text x="1012" y="473" font-size="12" text-anchor="middle" fill="#d8f3dc">▷ Render PDF</text>
  <rect x="1072" y="454" width="112" height="30" rx="4" fill="#1a1a1a" stroke="#333"/>
  <text x="1128" y="473" font-size="12" text-anchor="middle" fill="#888">⎙ Preview</text>

  <!-- Last render info -->
  <text x="960" y="508" font-size="10" fill="#444">Last render: 14:31  ·  1 page  ·  84 KB</text>
  <text x="960" y="522" font-size="10" fill="#2d6a4f">✓ PDF written to output/mayday.pdf</text>

  <!-- ═══════════════════════════════════ -->
  <!-- STATUS BAR                         -->
  <!-- ═══════════════════════════════════ -->
  <rect x="0" y="760" width="1200" height="20" fill="#0f0f0f"/>
  <rect x="0" y="760" width="1200" height="1" fill="#1e1e1e"/>
  <text x="12" y="773" font-size="10" fill="#444">14 sections  ·  38 poems  ·  6 with variants  ·  1 warning</text>
  <text x="600" y="773" font-size="10" text-anchor="middle" fill="#444">Selected: Mayday  ·  §VIII  ·  v3 canonical</text>
  <text x="1188" y="773" font-size="10" text-anchor="end" fill="#2d6a4f">✓ Built  14:32</text>

  <!-- Wireframe label -->
  <text x="600" y="748" font-size="10" text-anchor="middle" fill="#333">WIREFRAME 05 — Graph / Book Assembly</text>

</svg>
